PathFileType	4	(X/Y/Z)	C:/Users/dbak576/Desktop/Duncan Bakke Modelling Files/H29s1/Static_H29s1.trc	
DataRate	CameraRate	NumFrames	NumMarkers	Units	OrigDataRate	OrigDataStartFrame	OrigNumFrames	
200.00	200.00	4	66	mm	200.00	643	734	
Frame#	Time	LFHD			RFHD			LBHD			RBHD			C7			T10			CLAV			STRN			RBack			LASI			RASI			LPSI			RACR1			RUA1			RElbow			RElbowM			RFA1			RWRR			RWRU			RCAR			LACR1			LUA1			LElbow			LElbowM			LFA1			LWRR			LWRU			LCAR			RTH1			RTH3			RTH2			RLFC			RMFC			RTB1			RTB3			RTB2			RTB4			RLMAL			RCAL			RMT1			RMT5			RToe			LTH1			LTH3			LTH2			LTH4			LLFC			LMFC			LTB1			LTB3			LTB2			LTB4			LLMAL			LCAL			LMT1			LMT5			LToe			RPSI			RMMAL			LMMAL			RTH4			*61			*62			*63			*64			*65			
		X1	Y1	Z1	X2	Y2	Z2	X3	Y3	Z3	X4	Y4	Z4	X5	Y5	Z5	X6	Y6	Z6	X7	Y7	Z7	X8	Y8	Z8	X9	Y9	Z9	X10	Y10	Z10	X11	Y11	Z11	X12	Y12	Z12	X13	Y13	Z13	X14	Y14	Z14	X15	Y15	Z15	X16	Y16	Z16	X17	Y17	Z17	X18	Y18	Z18	X19	Y19	Z19	X20	Y20	Z20	X21	Y21	Z21	X22	Y22	Z22	X23	Y23	Z23	X24	Y24	Z24	X25	Y25	Z25	X26	Y26	Z26	X27	Y27	Z27	X28	Y28	Z28	X29	Y29	Z29	X30	Y30	Z30	X31	Y31	Z31	X32	Y32	Z32	X33	Y33	Z33	X34	Y34	Z34	X35	Y35	Z35	X36	Y36	Z36	X37	Y37	Z37	X38	Y38	Z38	X39	Y39	Z39	X40	Y40	Z40	X41	Y41	Z41	X42	Y42	Z42	X43	Y43	Z43	X44	Y44	Z44	X45	Y45	Z45	X46	Y46	Z46	X47	Y47	Z47	X48	Y48	Z48	X49	Y49	Z49	X50	Y50	Z50	X51	Y51	Z51	X52	Y52	Z52	X53	Y53	Z53	X54	Y54	Z54	X55	Y55	Z55	X56	Y56	Z56	X57	Y57	Z57	X58	Y58	Z58	X59	Y59	Z59	X60	Y60	Z60	X61	Y61	Z61	X62	Y62	Z62	X63	Y63	Z63	X64	Y64	Z64	X65	Y65	Z65	X66	Y66	Z66	

643	3.210	-39.68804	-388.10803	1690.22229	59.75271	-388.19482	1694.40381	-48.25750	-531.84888	1597.57996				20.76438	-559.55963	1484.81531	16.25509	-559.08344	1164.23132	21.59932	-356.42032	1448.59485	19.98454	-261.80008	1302.03491	135.70474	-591.88562	1355.42444	-165.45685	-321.11707	1017.63568	206.03027	-320.33304	1017.48138	-30.62889	-572.01849	1039.59534	164.08504	-504.43414	1523.24524	330.56033	-465.68848	1471.76624	460.79276	-394.44577	1460.76440	442.65582	-290.87286	1386.47412	586.45801	-306.16550	1470.65771	641.60425	-193.52429	1521.02478				735.85370	-185.23610	1492.93213	-125.08275	-505.03925	1519.46179	-281.85516	-484.05930	1454.96729	-435.85059	-437.14508	1432.04431	-429.21884	-341.16824	1350.75061	-554.73016	-368.67844	1443.00342	-641.67004	-276.19937	1504.75183				-731.49677	-253.91718	1483.32532	238.70686	-414.23251	796.82410	225.98586	-389.36404	626.70129	223.70746	-342.80658	720.80219	221.68271	-400.03473	509.96646	66.26052	-390.54880	502.02716	160.62613	-341.46527	381.93686	157.93102	-376.21017	212.35294	216.44229	-381.45724	301.95007	159.86005	-358.50009	296.95486	191.59528	-469.04581	79.59709	143.81192	-528.10144	49.23710	152.01892	-306.93991	27.35466	250.20576	-365.76465	32.92292	190.09633	-259.68124	29.76928	-201.15456	-378.16281	791.03625	-192.74680	-369.58289	619.58997	-180.02217	-317.14255	709.45325	-196.37383	-374.84003	706.11615	-199.02777	-386.52539	534.13342	-45.58410	-366.67365	505.25095	-151.03233	-324.72772	399.34500	-146.11775	-360.48502	230.76024	-201.60992	-367.25430	317.85953	-147.02606	-339.19843	315.70737	-176.93483	-461.67294	81.00529	-131.28690	-516.76257	45.31466	-137.63661	-302.64648	40.16116	-227.63837	-348.13849	24.21496	-166.20830	-243.65804	26.79724	46.41984	-582.72888	1031.47070	107.53445	-431.01868	77.80938	-91.75067	-443.73404	78.69368	237.63277	-400.13309	714.19202	-658.86499	-257.77914	1436.21655	97.27075	-516.75000	1612.21558				666.48798	-212.42282	1449.72302			 
644	3.215	-39.66660	-388.14917	1690.25586	59.77281	-388.24802	1694.36816	-48.28959	-531.94586	1597.58972				20.79103	-559.59503	1484.81848	16.23252	-559.11774	1164.23096	21.59577	-356.46515	1448.62256	19.96697	-261.80750	1302.04077	135.74048	-591.91034	1355.42224	-165.36816	-321.25375	1017.59552	206.20029	-320.52875	1017.59076	-30.65081	-572.00690	1039.60925	164.07372	-504.43326	1523.21265	330.52271	-465.75238	1471.75208	460.78015	-394.46768	1460.80945	442.65677	-290.85574	1386.54382	586.59137	-306.19009	1470.82886	641.57947	-193.52577	1521.09424				735.76019	-185.26863	1492.93909	-125.14502	-505.09756	1519.53528	-281.84192	-484.17615	1454.95996	-435.86978	-437.18622	1432.05286	-429.22815	-341.25415	1350.73328	-554.72156	-368.73581	1442.97998	-641.64667	-276.20728	1504.82861				-731.32440	-253.86894	1483.35669	238.72200	-414.24905	796.79669	225.84573	-389.16721	626.71655	223.64182	-342.90652	720.77026	221.70500	-400.05072	509.91415	66.24715	-390.59860	502.03024	160.63501	-341.48346	381.93182	157.94113	-376.20673	212.35378	216.46396	-381.47726	301.95938	159.87338	-358.52957	296.95160	191.64215	-469.04358	79.58140	143.82274	-528.10925	49.18200	152.01184	-306.93207	27.38858	250.43161	-365.67911	32.99478	190.14917	-259.64819	29.77416	-201.14732	-378.23126	791.02545	-192.76233	-369.63849	619.59131	-180.04042	-317.19833	709.45032	-196.32950	-374.90494	706.16815	-199.06673	-386.55978	534.09619	-45.56148	-366.73868	505.23120	-151.02774	-324.76889	399.32486	-146.12251	-360.50281	230.76056	-201.78947	-367.42163	317.99893	-147.01086	-339.21198	315.69720	-176.91566	-461.68234	81.01375	-131.32114	-516.81976	45.20784	-137.58400	-302.60474	40.16603	-227.70375	-348.18436	24.23485	-166.24524	-243.73128	26.75381	46.35415	-582.87372	1031.48376	107.52504	-431.01886	77.81112	-91.78624	-443.77640	78.60499	238.06496	-400.20993	714.34192	-659.23230	-258.01575	1437.18225	97.29439	-516.88092	1612.07214				666.76465	-212.54680	1449.76074			 
645	3.220	-39.66709	-388.18524	1690.25098	59.78770	-388.33096	1694.33215	-48.32708	-532.04846	1597.59399				20.80946	-559.65900	1484.80859	16.20889	-559.15656	1164.22449	21.58068	-356.52094	1448.65186	19.94292	-261.81012	1302.06677	135.76115	-591.94897	1355.43579	-165.32167	-321.39249	1017.56506	206.34229	-320.75079	1017.70026	-30.69874	-572.03467	1039.62646	164.06261	-504.48062	1523.19885	330.49197	-465.82355	1471.74634	460.76956	-394.49796	1460.86353	442.67578	-290.84698	1386.62720	586.70477	-306.23044	1470.93774	641.55536	-193.53621	1521.18274				735.68945	-185.30113	1492.93665	-125.23106	-505.16168	1519.58569	-281.85107	-484.31522	1454.94653	-435.89185	-437.21249	1432.06091	-429.20941	-341.38721	1350.71106	-554.67133	-368.79065	1442.98169	-641.70880	-276.22174	1504.65466				-731.14832	-253.83507	1483.39832	238.71388	-414.23892	796.77429	225.66048	-389.05560	626.73877	223.52254	-343.07364	720.73016	221.72746	-400.06729	509.86819	66.24274	-390.63196	502.03186	160.64606	-341.49915	381.92831	157.93701	-376.19995	212.33977	216.48198	-381.49362	301.95316	159.87427	-358.55869	296.94104	191.67978	-469.03214	79.58524	143.82669	-528.11438	49.12971	152.01079	-306.93069	27.41404	250.63069	-365.69980	33.02402	190.17697	-259.57404	29.87623	-201.14151	-378.29355	791.01447	-192.78325	-369.68115	619.59338	-180.05440	-317.26343	709.47559	-196.31947	-374.95483	706.15778	-199.10468	-386.60538	534.07379	-45.54787	-366.80511	505.21747	-151.02951	-324.81406	399.30896	-146.12334	-360.51956	230.75673	-201.98190	-367.62192	318.13431	-147.00005	-339.23956	315.68616	-176.89034	-461.67410	81.03973	-131.37827	-516.93439	45.06247	-137.55386	-302.54562	40.29578	-227.71832	-348.22217	24.24023	-166.23717	-243.81461	26.78077	46.28537	-582.96558	1031.53027	107.52195	-431.02112	77.80733	-91.81734	-443.81845	78.51737	238.37047	-400.33069	714.33435	-659.50970	-258.33191	1437.48584	97.45712	-517.02228	1611.86902				666.95691	-212.72327	1450.04102			 
646	3.225	-39.68137	-388.26117	1690.29834	59.72986	-388.45081	1694.22839	-48.37350	-532.15186	1597.59412				20.86097	-559.79718	1484.81030	16.19509	-559.18982	1164.23035	21.55971	-356.57751	1448.67639	19.91009	-261.81390	1302.11194	135.76512	-591.99725	1355.45398	-165.30061	-321.48468	1017.55652	206.43039	-320.97336	1017.78540	-30.75795	-572.09296	1039.64258	164.06314	-504.54556	1523.15308	330.46613	-465.87961	1471.75269	460.76096	-394.52081	1460.90039	442.69421	-290.84506	1386.70154	586.81128	-306.29904	1471.00427	641.53223	-193.55142	1521.28638				735.63672	-185.34355	1492.95667	-125.32095	-505.24689	1519.63708	-281.85724	-484.45505	1454.93042	-435.90622	-437.26682	1432.05225	-429.17242	-341.54764	1350.68848	-554.60876	-368.83032	1442.99487	-641.68616	-276.26462	1504.67224				-730.98682	-253.81328	1483.44324	238.68376	-414.20541	796.75708	225.45341	-389.00452	626.73566	223.39697	-343.28580	720.69196	221.74348	-400.08044	509.83984	66.24380	-390.62103	502.04971	160.65396	-341.51407	381.92603	157.93019	-376.19644	212.32492	216.50145	-381.49802	301.95816	159.86725	-358.58771	296.93079	191.70515	-469.01556	79.59921	143.84224	-528.12628	49.10746	152.01883	-306.93347	27.42058	251.12427	-365.74789	33.21547	190.17297	-259.53311	29.91726	-201.12729	-378.35315	791.01361	-192.78790	-369.72247	619.60632	-180.06383	-317.31433	709.49170	-196.30693	-374.99792	706.15247	-199.09372	-386.66690	534.10626	-45.54365	-366.87015	505.21231	-151.03256	-324.86209	399.30341	-146.11894	-360.53729	230.74915	-202.14124	-367.82590	318.24655	-146.99442	-339.27237	315.67383	-176.91425	-461.71594	81.00877	-131.40446	-516.98749	45.02348	-137.16220	-302.03876	40.58687	-227.82390	-348.36346	24.28370	-166.24065	-243.86401	26.73627	46.19891	-583.08380	1031.57458	107.52833	-431.02032	77.80297	-91.84291	-443.85876	78.43547	238.61404	-400.45395	714.20624	-659.67383	-258.68475	1437.07898	97.68730	-517.27307	1611.79822				667.10388	-212.93900	1450.44543			 
